<?xml version="1.0" encoding="UTF-8"?>
<!DOCTYPE svg PUBLIC "-//W3C//DTD SVG 1.1//EN" "http://www.w3.org/Graphics/SVG/1.1/DTD/svg11.dtd">
<!-- Creator: CorelDRAW X6 -->
<svg xmlns="http://www.w3.org/2000/svg" xml:space="preserve" width="733px" height="733px" version="1.1" style="shape-rendering:geometricPrecision; text-rendering:geometricPrecision; image-rendering:optimizeQuality; fill-rule:evenodd; clip-rule:evenodd"
viewBox="0 0 128 128"
 xmlns:xlink="http://www.w3.org/1999/xlink">
 <defs>
  <style type="text/css">
   <![CDATA[
    .str1 {stroke:white;stroke-width:0.156749}
    .str0 {stroke:#FF6600;stroke-width:0.362867}
    .fil0 {fill:#FF6600}
    .fil3 {fill:white}
    .fil1 {fill:url(#id4)}
    .fil2 {fill:url(#id5);fill-rule:nonzero}
   ]]>
  </style>
    <mask id="id0">
  <linearGradient id="id1" gradientUnits="userSpaceOnUse" x1="78.6766" y1="67.5507" x2="74.4106" y2="79.5015">
   <stop offset="0" style="stop-opacity:1; stop-color:white"/>
   <stop offset="1" style="stop-opacity:0; stop-color:white"/>
  </linearGradient>
     <rect style="fill:url(#id1)" x="33" y="22" width="88" height="104"/>
    </mask>
    <mask id="id2">
  <linearGradient id="id3" gradientUnits="userSpaceOnUse" x1="63.8379" y1="26.176" x2="63.8379" y2="69.7304">
   <stop offset="0" style="stop-opacity:0.737255; stop-color:white"/>
   <stop offset="0.219608" style="stop-opacity:0.631373; stop-color:white"/>
   <stop offset="1" style="stop-opacity:0; stop-color:white"/>
  </linearGradient>
     <rect style="fill:url(#id3)" x="26" y="18" width="75" height="59"/>
    </mask>
  <radialGradient id="id4" gradientUnits="userSpaceOnUse" cx="63.8109" cy="79.3453" r="57.6091" fx="63.8109" fy="79.3453">
   <stop offset="0" style="stop-color:#C5E0FA"/>
   <stop offset="0.109804" style="stop-color:#75B8FB"/>
   <stop offset="0.180392" style="stop-color:#49A3FC"/>
   <stop offset="0.580392" style="stop-color:#195FA6"/>
   <stop offset="0.709804" style="stop-color:#12406D"/>
   <stop offset="1" style="stop-color:#11375C"/>
  </radialGradient>
  <radialGradient id="id5" gradientUnits="userSpaceOnUse" cx="122.048" cy="26.9521" r="51.7487" fx="122.048" fy="26.9521">
   <stop offset="0" style="stop-color:#F07828"/>
   <stop offset="0.0901961" style="stop-color:#F6B585"/>
   <stop offset="0.278431" style="stop-color:#F58A3D"/>
   <stop offset="0.439216" style="stop-color:#FF6A06"/>
   <stop offset="0.85098" style="stop-color:#F05800"/>
   <stop offset="1" style="stop-color:#F05800"/>
  </radialGradient>
 </defs>
 <g id="Layer_x0020_1">
  <metadata id="CorelCorpID_0Corel-Layer"/>
  <g id="_431120568">
   <circle class="fil0 str0" cx="64" cy="64" r="57"/>
   <path class="fil0" d="M64 0c35,0 64,29 64,64 0,35 -29,64 -64,64 -35,0 -64,-29 -64,-64 0,-35 29,-64 64,-64zm-8 10c2,0 4,0 5,-1 0,0 0,0 0,0 8,5 19,7 30,7 2,1 4,3 6,4 -9,1 -18,0 -25,-3 -6,-3 -12,-6 -17,-8zm48 17c1,1 3,3 4,5 -11,4 -25,3 -35,-1 -15,-6 -23,-14 -36,-15 3,-2 7,-3 10,-4 5,3 9,6 15,9 11,6 27,9 41,6zm7 10c1,2 2,3 2,5 -12,6 -28,5 -39,1 -21,-8 -30,-22 -56,-11 4,-5 8,-10 13,-13 12,0 18,7 31,14 13,7 33,10 48,4zm4 10c0,1 1,2 1,3 0,0 0,1 0,1 -12,7 -31,7 -42,2 -22,-8 -30,-23 -57,-10 -2,1 -4,2 -6,3 2,-5 4,-9 6,-13 0,0 0,0 1,0 28,-10 34,6 55,14 12,5 30,5 43,-1zm2 9c0,2 0,3 0,5 -12,8 -32,8 -44,3 -21,-8 -29,-23 -57,-11 -3,2 -6,3 -9,5 0,-4 1,-8 2,-12 2,-1 4,-2 7,-3 29,-10 34,6 55,14 13,5 32,5 45,-2zm0 9c0,2 0,4 -1,6 -12,7 -32,7 -43,3 -22,-8 -30,-23 -58,-11 -3,1 -5,2 -7,4 0,-3 0,-5 0,-8 3,-2 6,-4 9,-5 28,-10 34,5 55,14 13,5 32,5 45,-2zm-1 10c0,2 -1,4 -2,6 -13,6 -31,6 -43,2 -22,-8 -29,-23 -58,-11 -2,1 -3,1 -5,2 0,-2 -1,-4 -1,-7 2,-1 5,-2 7,-3 29,-11 35,5 57,13 12,5 31,5 44,-1zm-2 8c-6,16 -20,29 -38,33 -29,7 -59,-11 -66,-40 0,-1 0,-2 -1,-3 1,-1 3,-1 5,-2 29,-11 36,4 58,12 12,4 29,5 42,-1zm-63 -69c27,-7 55,10 62,37 7,27 -10,55 -37,62 -27,7 -55,-10 -62,-37 -7,-27 10,-55 37,-62z"/>
   <path class="fil1" d="M115 84c-6,16 -20,29 -38,33 -29,7 -59,-11 -66,-40 0,-1 0,-2 -1,-3 1,-1 3,-1 5,-2 29,-11 36,4 58,12 12,4 29,5 42,-1zm2 -8c0,2 -1,4 -2,6 -13,6 -31,6 -43,2 -22,-8 -29,-23 -58,-11 -2,1 -3,1 -5,2 0,-2 -1,-4 -1,-7 2,-1 5,-2 7,-3 29,-11 35,5 57,13 12,5 31,5 44,-1zm1 -10c0,2 0,4 -1,6 -12,7 -32,7 -43,3 -22,-8 -30,-23 -58,-11 -3,1 -5,2 -7,4 0,-3 0,-5 0,-8 3,-2 6,-4 9,-5 28,-10 34,5 55,14 13,5 32,5 45,-2zm0 -9c0,2 0,3 0,5 -12,8 -32,8 -44,3 -21,-8 -29,-23 -57,-11 -3,2 -6,3 -9,5 0,-4 1,-8 2,-12 2,-1 4,-2 7,-3 29,-10 34,6 55,14 13,5 32,5 45,-2zm-2 -9c0,1 1,2 1,3 0,0 0,1 0,1 -12,7 -31,7 -42,2 -22,-8 -30,-23 -57,-10 -2,1 -4,2 -6,3 2,-5 4,-9 6,-13 0,0 0,0 1,0 28,-10 34,6 55,14 12,5 30,5 43,-1zm-4 -10c1,2 2,3 2,5 -12,6 -28,5 -39,1 -21,-8 -30,-22 -56,-11 4,-5 8,-10 13,-13 12,0 18,7 31,14 13,7 33,10 48,4zm-7 -10c1,1 3,3 4,5 -11,4 -25,3 -35,-1 -15,-6 -23,-14 -36,-15 3,-2 7,-3 10,-4 5,3 9,6 15,9 11,6 27,9 41,6zm-48 -17c2,0 4,0 5,-1 0,0 0,0 0,0 8,5 19,7 30,7 2,1 4,3 6,4 -9,1 -18,0 -25,-3 -6,-3 -12,-6 -17,-8z"/>
   <path class="fil2" style="mask:url(#id0)" d="M33 120c1,-7 4,-15 7,-23 5,-12 12,-24 21,-35 11,-13 23,-24 35,-31 6,-4 11,-6 17,-9 3,4 6,8 8,12 -5,2 -11,5 -18,9 -10,7 -21,16 -31,28 -8,10 -14,21 -19,32 -3,8 -6,16 -7,23 -5,-1 -9,-3 -14,-6z"/>
   <path class="fil3 str1" style="mask:url(#id2)" d="M64 19c21,0 37,13 37,29 0,16 -17,29 -37,29 -21,0 -37,-13 -37,-29 0,-16 17,-29 37,-29z"/>
  </g>
 </g>
</svg>
